<svg version="1" xmlns="http://www.w3.org/2000/svg" width="768" height="768" viewBox="0 0 576.000000 576.000000"><path d="M278.8 33.4c-7.4 2-17.8 10.2-17.8 14.1 0 .7-.4 1.5-.9 1.7-.6.2-21.6 41.8-22.6 44.8-.4 1.2-3.6 7.6-4.5 9-1.8 2.8-25 51-24.9 51.6 0 .4-.3 1-.8 1.3-.4.3-3.7 6.5-7.2 13.6-4.2 8.7-6.9 13.1-8 13.1-.9 0-3.8.4-6.6.8-2.7.4-6.3.9-8 1.1-3.5.4-8.9 1.3-12.5 2-1.4.3-4.5.7-7 1-2.5.2-5.4.6-6.5.8-1.1.3-4.2.8-7 1.1-2.7.4-6.1.8-7.5 1.1-3 .5-7.8 1.2-14.5 2-2.7.4-5.7.8-6.5 1-.8.2-3.7.7-6.5 1-2.7.4-6.3.9-8 1.2-1.6.3-4.1.6-5.5.8-3.5.4-11 1.5-14 2-1.4.3-4.5.7-6.9 1-4.3.5-8.5 1.1-13.1 2-1.4.3-4.7.7-7.5 1.1-13.6 1.6-18 3.5-25 10.9-9.5 9.9-11.5 22.8-5.5 35.9 1.7 3.9 11.4 14 42 43.6 26.1 25.3 65.4 63.7 67.6 66 1.3 1.3 2.2 3.1 2 4-.3.8-.7 3.5-1.1 6-.8 5.4-1.3 8.8-1.9 11.5-.2 1.1-.7 4-1.1 6.5-.4 2.5-.9 5.4-1.1 6.5-.2 1.1-.6 3.1-.8 4.5-.3 1.4-.8 4.5-1.2 7-.5 2.5-.9 4.9-1 5.5 0 .5-.4 2.6-.8 4.5s-.9 4.6-1.1 6c-.8 6.2-2.8 18.1-4 23-.3 1.4-.8 4.3-1 6.5-.3 2.2-.7 5.1-1 6.5-.3 1.4-.8 4.1-1.1 6-.3 1.9-.7 4.6-1 6-7 39.7-6.8 38.6-6.7 44.2.4 16.5 13.7 29.9 30.4 30.5 6 .1 13.5-1.2 14.9-2.7.3-.3 2.8-1.6 5.5-2.9 2.8-1.3 5.8-3.1 6.8-3.9.9-.8 1.7-1.2 1.7-.7 0 .4.6.3 1.3-.2 1.4-1.2 25.7-14.1 49.7-26.4 3.6-1.9 6.7-3.7 6.8-4.1.2-.5 1.1-.8 2.1-.8.9 0 2.1-.4 2.7-.9.5-.5 4.5-2.8 8.9-5.1s8.6-4.7 9.3-5.2c.6-.6 1.2-.7 1.2-.3 0 .4.6.3 1.3-.2 1.4-1.2 8-4.8 23.4-12.8l11.3-5.9 6.7 3.5c3.8 2 11.5 6 17.3 9.1 12.3 6.5 33.6 17.6 40 21 2.5 1.2 4.7 2.6 4.8 3 .2.5 1.1.8 2.1.8.9 0 2.1.4 2.7.9.5.5 5 3 9.9 5.6 5 2.6 13.7 7.2 19.5 10.3 5.8 3.1 15.9 8.3 22.5 11.6 11.7 6 12.1 6.1 20 6.1 6.3 0 9.1-.6 13-2.4 12.2-5.8 19.6-17.8 18.9-30.6-.2-3.3-3.1-21.3-6-37-.3-1.7-.7-3.9-.9-5-.6-4-2.1-12.6-2.9-17.5-1.1-5.9-2.6-14.8-3.2-18.5-.3-2.2-.7-4.5-.8-5-.2-.6-.6-3-1-5.5-1-6-1.4-8.4-1.6-9-.1-.3-.2-.9-.1-1.3.1-.5-.3-2.5-.8-4.5-.6-2-1.2-5.5-1.5-7.7-.3-2.2-1-6.7-1.6-10-.6-3.3-1.3-7.6-1.6-9.5-.5-3.7-2.2-13.2-2.9-16.5-.5-2.5-2.4-.5 33-35 71.6-69.7 75.2-73.2 77.4-76.8 5.2-8.6 5.8-21.1 1.5-30.3-4.4-9.2-15.2-17-24.9-17.9-.5-.1-2.8-.4-5-.8s-6-.9-8.5-1.2c-2.5-.3-7-1-10-1.5s-7.3-1.2-9.5-1.5c-2.2-.2-5.6-.7-7.5-1-1.9-.3-4.8-.7-6.5-1-1.6-.2-4.8-.6-7-1-7.1-1.1-10.9-1.6-14.5-2.1-3.9-.5-8.2-1.1-13.7-2-2.1-.4-4.5-.7-5.3-.8-6.3-.8-13.9-1.9-16-2.2-4.6-.9-7.4-1.3-18.5-2.9-6-.9-12.8-1.8-15-2.2-2.2-.3-5-.6-6.1-.6-1.8-.1-3.9-3.6-12-20.2-5.5-11-10.2-20.2-10.6-20.3-.5-.2-.8-.9-.8-1.5 0-.7-6.1-13.5-13.5-28.5S334 84.7 334 84.4c0-.3-.9-1.9-2.1-3.5-1.1-1.6-1.8-2.9-1.6-2.9 1.2 0-16.5-33.5-19-35.9-9-8.9-20.5-11.9-32.5-8.7z"/></svg>